<svg width="19" height="18" viewBox="0 0 19 18" fill="none" xmlns="http://www.w3.org/2000/svg">
<g clip-path="url(#clip0_5031_664)">
<path d="M0.743259 16.9283C1.29303 17.4857 3.55748 16.5137 5.34482 15.7344C6.68412 15.1521 12.0437 13.0949 14.7078 12.0278C15.4271 11.7401 16.4733 11.364 17.2265 10.4373C17.895 9.61265 19.6678 6.10999 16.0979 2.56202C12.4748 -1.04032 8.74271 -0.0457115 7.34771 0.878663C6.5267 1.42241 5.85826 2.64812 5.55795 3.27116C4.28888 5.90382 2.47974 10.7273 1.74349 12.6237C1.20342 14.0216 0.198338 16.3755 0.743259 16.9283V16.9283Z" fill="#FFC107"/>
<path d="M5.1995 4.06413C5.23341 4.45835 5.31818 5.09952 5.6088 6.33429C5.8074 7.18163 6.13193 8.06976 6.39591 8.65656C7.18786 10.4215 8.2995 11.1329 9.42568 11.7038C11.339 12.6735 12.6395 12.8548 12.6395 12.8548L11.0798 13.4506C11.0798 13.4506 10.1353 13.2671 8.84685 12.6735C7.61896 12.1071 6.34021 11.1487 5.40536 9.27281C5.00091 8.45945 4.76599 7.67101 4.63036 7.0457C4.46325 6.27085 4.43661 5.83132 4.43661 5.83132L5.1995 4.06413V4.06413ZM3.2838 8.65882C3.2838 8.65882 3.47755 10.1292 4.77568 11.9848C6.29661 14.1552 8.4206 14.5109 8.4206 14.5109L7.00865 15.0547C7.00865 15.0547 5.432 14.6038 3.93286 12.6894C2.99802 11.4954 2.73646 10.068 2.73646 10.068L3.2838 8.65882V8.65882ZM1.93966 12.1434C1.93966 12.1434 2.29325 13.4121 3.06825 14.3591C3.99099 15.4897 5.1656 15.8182 5.1656 15.8182L4.08302 16.2668C4.08302 16.2668 3.262 16.1059 2.36349 15.0411C1.68052 14.2323 1.48677 13.3034 1.48677 13.3034L1.93966 12.1434V12.1434Z" fill="#FF8F00"/>
<path opacity="0.44" d="M1.35116 15.3651C1.30272 15.2631 1.30272 15.1476 1.35358 15.0479L7.52209 3.08086L8.53686 6.64922L2.04623 15.4194C1.87186 15.6641 1.47951 15.6324 1.35116 15.3651V15.3651Z" fill="#FFFDE7"/>
<path d="M9.02607 7.84772C11.9081 11.0015 15.1897 10.6073 16.282 9.80975C17.3767 9.00999 18.2413 6.26178 15.3714 3.16014C12.3634 -0.088762 8.95826 0.837878 8.17115 1.54022C7.38404 2.24257 6.38139 4.95452 9.02607 7.84772V7.84772Z" fill="url(#paint0_linear_5031_664)"/>
</g>
<defs>
<linearGradient id="paint0_linear_5031_664" x1="16.9538" y1="3.01039" x2="10.007" y2="7.46588" gradientUnits="userSpaceOnUse">
<stop offset="0.024" stop-color="#8F4700"/>
<stop offset="1" stop-color="#703E2D"/>
</linearGradient>
<clipPath id="clip0_5031_664">
<rect width="19" height="18" fill="white"/>
</clipPath>
</defs>
</svg>
